<?xml version="1.0" encoding="utf-8"?>
<!DOCTYPE svg PUBLIC "-//W3C//DTD SVG 1.1//EN" "http://www.w3.org/Graphics/SVG/1.1/DTD/svg11.dtd">
<svg xmlns="http://www.w3.org/2000/svg" version="1.1" xml:space="preserve" xmlns:xlink="http://www.w3.org/1999/xlink" width="198" height="198" viewBox="0 0 198 198">
<desc></desc>
<rect width="198" height="198" fill="#ffffff" cx="0" cy="0" />
<defs>
	<rect id="p" width="6" height="6" />
</defs>
<g fill="#000000">
	<use x="24" y="24" xlink:href="#p" />
	<use x="30" y="24" xlink:href="#p" />
	<use x="36" y="24" xlink:href="#p" />
	<use x="42" y="24" xlink:href="#p" />
	<use x="48" y="24" xlink:href="#p" />
	<use x="54" y="24" xlink:href="#p" />
	<use x="60" y="24" xlink:href="#p" />
	<use x="78" y="24" xlink:href="#p" />
	<use x="108" y="24" xlink:href="#p" />
	<use x="114" y="24" xlink:href="#p" />
	<use x="132" y="24" xlink:href="#p" />
	<use x="138" y="24" xlink:href="#p" />
	<use x="144" y="24" xlink:href="#p" />
	<use x="150" y="24" xlink:href="#p" />
	<use x="156" y="24" xlink:href="#p" />
	<use x="162" y="24" xlink:href="#p" />
	<use x="168" y="24" xlink:href="#p" />
	<use x="24" y="30" xlink:href="#p" />
	<use x="60" y="30" xlink:href="#p" />
	<use x="72" y="30" xlink:href="#p" />
	<use x="78" y="30" xlink:href="#p" />
	<use x="90" y="30" xlink:href="#p" />
	<use x="96" y="30" xlink:href="#p" />
	<use x="108" y="30" xlink:href="#p" />
	<use x="114" y="30" xlink:href="#p" />
	<use x="120" y="30" xlink:href="#p" />
	<use x="132" y="30" xlink:href="#p" />
	<use x="168" y="30" xlink:href="#p" />
	<use x="24" y="36" xlink:href="#p" />
	<use x="36" y="36" xlink:href="#p" />
	<use x="42" y="36" xlink:href="#p" />
	<use x="48" y="36" xlink:href="#p" />
	<use x="60" y="36" xlink:href="#p" />
	<use x="78" y="36" xlink:href="#p" />
	<use x="84" y="36" xlink:href="#p" />
	<use x="90" y="36" xlink:href="#p" />
	<use x="108" y="36" xlink:href="#p" />
	<use x="114" y="36" xlink:href="#p" />
	<use x="132" y="36" xlink:href="#p" />
	<use x="144" y="36" xlink:href="#p" />
	<use x="150" y="36" xlink:href="#p" />
	<use x="156" y="36" xlink:href="#p" />
	<use x="168" y="36" xlink:href="#p" />
	<use x="24" y="42" xlink:href="#p" />
	<use x="36" y="42" xlink:href="#p" />
	<use x="42" y="42" xlink:href="#p" />
	<use x="48" y="42" xlink:href="#p" />
	<use x="60" y="42" xlink:href="#p" />
	<use x="72" y="42" xlink:href="#p" />
	<use x="78" y="42" xlink:href="#p" />
	<use x="90" y="42" xlink:href="#p" />
	<use x="102" y="42" xlink:href="#p" />
	<use x="108" y="42" xlink:href="#p" />
	<use x="114" y="42" xlink:href="#p" />
	<use x="120" y="42" xlink:href="#p" />
	<use x="132" y="42" xlink:href="#p" />
	<use x="144" y="42" xlink:href="#p" />
	<use x="150" y="42" xlink:href="#p" />
	<use x="156" y="42" xlink:href="#p" />
	<use x="168" y="42" xlink:href="#p" />
	<use x="24" y="48" xlink:href="#p" />
	<use x="36" y="48" xlink:href="#p" />
	<use x="42" y="48" xlink:href="#p" />
	<use x="48" y="48" xlink:href="#p" />
	<use x="60" y="48" xlink:href="#p" />
	<use x="84" y="48" xlink:href="#p" />
	<use x="96" y="48" xlink:href="#p" />
	<use x="102" y="48" xlink:href="#p" />
	<use x="108" y="48" xlink:href="#p" />
	<use x="114" y="48" xlink:href="#p" />
	<use x="132" y="48" xlink:href="#p" />
	<use x="144" y="48" xlink:href="#p" />
	<use x="150" y="48" xlink:href="#p" />
	<use x="156" y="48" xlink:href="#p" />
	<use x="168" y="48" xlink:href="#p" />
	<use x="24" y="54" xlink:href="#p" />
	<use x="60" y="54" xlink:href="#p" />
	<use x="72" y="54" xlink:href="#p" />
	<use x="84" y="54" xlink:href="#p" />
	<use x="108" y="54" xlink:href="#p" />
	<use x="114" y="54" xlink:href="#p" />
	<use x="120" y="54" xlink:href="#p" />
	<use x="132" y="54" xlink:href="#p" />
	<use x="168" y="54" xlink:href="#p" />
	<use x="24" y="60" xlink:href="#p" />
	<use x="30" y="60" xlink:href="#p" />
	<use x="36" y="60" xlink:href="#p" />
	<use x="42" y="60" xlink:href="#p" />
	<use x="48" y="60" xlink:href="#p" />
	<use x="54" y="60" xlink:href="#p" />
	<use x="60" y="60" xlink:href="#p" />
	<use x="72" y="60" xlink:href="#p" />
	<use x="84" y="60" xlink:href="#p" />
	<use x="96" y="60" xlink:href="#p" />
	<use x="108" y="60" xlink:href="#p" />
	<use x="120" y="60" xlink:href="#p" />
	<use x="132" y="60" xlink:href="#p" />
	<use x="138" y="60" xlink:href="#p" />
	<use x="144" y="60" xlink:href="#p" />
	<use x="150" y="60" xlink:href="#p" />
	<use x="156" y="60" xlink:href="#p" />
	<use x="162" y="60" xlink:href="#p" />
	<use x="168" y="60" xlink:href="#p" />
	<use x="96" y="66" xlink:href="#p" />
	<use x="108" y="66" xlink:href="#p" />
	<use x="114" y="66" xlink:href="#p" />
	<use x="120" y="66" xlink:href="#p" />
	<use x="24" y="72" xlink:href="#p" />
	<use x="30" y="72" xlink:href="#p" />
	<use x="36" y="72" xlink:href="#p" />
	<use x="42" y="72" xlink:href="#p" />
	<use x="48" y="72" xlink:href="#p" />
	<use x="60" y="72" xlink:href="#p" />
	<use x="66" y="72" xlink:href="#p" />
	<use x="72" y="72" xlink:href="#p" />
	<use x="78" y="72" xlink:href="#p" />
	<use x="84" y="72" xlink:href="#p" />
	<use x="96" y="72" xlink:href="#p" />
	<use x="108" y="72" xlink:href="#p" />
	<use x="120" y="72" xlink:href="#p" />
	<use x="126" y="72" xlink:href="#p" />
	<use x="138" y="72" xlink:href="#p" />
	<use x="150" y="72" xlink:href="#p" />
	<use x="162" y="72" xlink:href="#p" />
	<use x="24" y="78" xlink:href="#p" />
	<use x="30" y="78" xlink:href="#p" />
	<use x="36" y="78" xlink:href="#p" />
	<use x="42" y="78" xlink:href="#p" />
	<use x="78" y="78" xlink:href="#p" />
	<use x="102" y="78" xlink:href="#p" />
	<use x="120" y="78" xlink:href="#p" />
	<use x="126" y="78" xlink:href="#p" />
	<use x="132" y="78" xlink:href="#p" />
	<use x="144" y="78" xlink:href="#p" />
	<use x="150" y="78" xlink:href="#p" />
	<use x="156" y="78" xlink:href="#p" />
	<use x="162" y="78" xlink:href="#p" />
	<use x="24" y="84" xlink:href="#p" />
	<use x="36" y="84" xlink:href="#p" />
	<use x="42" y="84" xlink:href="#p" />
	<use x="60" y="84" xlink:href="#p" />
	<use x="66" y="84" xlink:href="#p" />
	<use x="72" y="84" xlink:href="#p" />
	<use x="78" y="84" xlink:href="#p" />
	<use x="90" y="84" xlink:href="#p" />
	<use x="96" y="84" xlink:href="#p" />
	<use x="108" y="84" xlink:href="#p" />
	<use x="114" y="84" xlink:href="#p" />
	<use x="120" y="84" xlink:href="#p" />
	<use x="126" y="84" xlink:href="#p" />
	<use x="150" y="84" xlink:href="#p" />
	<use x="24" y="90" xlink:href="#p" />
	<use x="30" y="90" xlink:href="#p" />
	<use x="36" y="90" xlink:href="#p" />
	<use x="48" y="90" xlink:href="#p" />
	<use x="54" y="90" xlink:href="#p" />
	<use x="66" y="90" xlink:href="#p" />
	<use x="72" y="90" xlink:href="#p" />
	<use x="78" y="90" xlink:href="#p" />
	<use x="84" y="90" xlink:href="#p" />
	<use x="90" y="90" xlink:href="#p" />
	<use x="108" y="90" xlink:href="#p" />
	<use x="114" y="90" xlink:href="#p" />
	<use x="120" y="90" xlink:href="#p" />
	<use x="150" y="90" xlink:href="#p" />
	<use x="168" y="90" xlink:href="#p" />
	<use x="24" y="96" xlink:href="#p" />
	<use x="30" y="96" xlink:href="#p" />
	<use x="54" y="96" xlink:href="#p" />
	<use x="60" y="96" xlink:href="#p" />
	<use x="66" y="96" xlink:href="#p" />
	<use x="78" y="96" xlink:href="#p" />
	<use x="90" y="96" xlink:href="#p" />
	<use x="96" y="96" xlink:href="#p" />
	<use x="126" y="96" xlink:href="#p" />
	<use x="144" y="96" xlink:href="#p" />
	<use x="150" y="96" xlink:href="#p" />
	<use x="168" y="96" xlink:href="#p" />
	<use x="24" y="102" xlink:href="#p" />
	<use x="30" y="102" xlink:href="#p" />
	<use x="72" y="102" xlink:href="#p" />
	<use x="84" y="102" xlink:href="#p" />
	<use x="96" y="102" xlink:href="#p" />
	<use x="108" y="102" xlink:href="#p" />
	<use x="132" y="102" xlink:href="#p" />
	<use x="144" y="102" xlink:href="#p" />
	<use x="150" y="102" xlink:href="#p" />
	<use x="24" y="108" xlink:href="#p" />
	<use x="48" y="108" xlink:href="#p" />
	<use x="54" y="108" xlink:href="#p" />
	<use x="60" y="108" xlink:href="#p" />
	<use x="78" y="108" xlink:href="#p" />
	<use x="96" y="108" xlink:href="#p" />
	<use x="108" y="108" xlink:href="#p" />
	<use x="114" y="108" xlink:href="#p" />
	<use x="132" y="108" xlink:href="#p" />
	<use x="144" y="108" xlink:href="#p" />
	<use x="150" y="108" xlink:href="#p" />
	<use x="24" y="114" xlink:href="#p" />
	<use x="42" y="114" xlink:href="#p" />
	<use x="48" y="114" xlink:href="#p" />
	<use x="66" y="114" xlink:href="#p" />
	<use x="72" y="114" xlink:href="#p" />
	<use x="78" y="114" xlink:href="#p" />
	<use x="84" y="114" xlink:href="#p" />
	<use x="108" y="114" xlink:href="#p" />
	<use x="114" y="114" xlink:href="#p" />
	<use x="138" y="114" xlink:href="#p" />
	<use x="162" y="114" xlink:href="#p" />
	<use x="168" y="114" xlink:href="#p" />
	<use x="24" y="120" xlink:href="#p" />
	<use x="36" y="120" xlink:href="#p" />
	<use x="60" y="120" xlink:href="#p" />
	<use x="72" y="120" xlink:href="#p" />
	<use x="78" y="120" xlink:href="#p" />
	<use x="84" y="120" xlink:href="#p" />
	<use x="90" y="120" xlink:href="#p" />
	<use x="96" y="120" xlink:href="#p" />
	<use x="108" y="120" xlink:href="#p" />
	<use x="114" y="120" xlink:href="#p" />
	<use x="120" y="120" xlink:href="#p" />
	<use x="126" y="120" xlink:href="#p" />
	<use x="132" y="120" xlink:href="#p" />
	<use x="138" y="120" xlink:href="#p" />
	<use x="144" y="120" xlink:href="#p" />
	<use x="150" y="120" xlink:href="#p" />
	<use x="162" y="120" xlink:href="#p" />
	<use x="168" y="120" xlink:href="#p" />
	<use x="72" y="126" xlink:href="#p" />
	<use x="102" y="126" xlink:href="#p" />
	<use x="120" y="126" xlink:href="#p" />
	<use x="144" y="126" xlink:href="#p" />
	<use x="150" y="126" xlink:href="#p" />
	<use x="168" y="126" xlink:href="#p" />
	<use x="24" y="132" xlink:href="#p" />
	<use x="30" y="132" xlink:href="#p" />
	<use x="36" y="132" xlink:href="#p" />
	<use x="42" y="132" xlink:href="#p" />
	<use x="48" y="132" xlink:href="#p" />
	<use x="54" y="132" xlink:href="#p" />
	<use x="60" y="132" xlink:href="#p" />
	<use x="72" y="132" xlink:href="#p" />
	<use x="90" y="132" xlink:href="#p" />
	<use x="96" y="132" xlink:href="#p" />
	<use x="114" y="132" xlink:href="#p" />
	<use x="120" y="132" xlink:href="#p" />
	<use x="132" y="132" xlink:href="#p" />
	<use x="144" y="132" xlink:href="#p" />
	<use x="24" y="138" xlink:href="#p" />
	<use x="60" y="138" xlink:href="#p" />
	<use x="84" y="138" xlink:href="#p" />
	<use x="96" y="138" xlink:href="#p" />
	<use x="108" y="138" xlink:href="#p" />
	<use x="114" y="138" xlink:href="#p" />
	<use x="120" y="138" xlink:href="#p" />
	<use x="144" y="138" xlink:href="#p" />
	<use x="162" y="138" xlink:href="#p" />
	<use x="168" y="138" xlink:href="#p" />
	<use x="24" y="144" xlink:href="#p" />
	<use x="36" y="144" xlink:href="#p" />
	<use x="42" y="144" xlink:href="#p" />
	<use x="48" y="144" xlink:href="#p" />
	<use x="60" y="144" xlink:href="#p" />
	<use x="72" y="144" xlink:href="#p" />
	<use x="78" y="144" xlink:href="#p" />
	<use x="90" y="144" xlink:href="#p" />
	<use x="96" y="144" xlink:href="#p" />
	<use x="102" y="144" xlink:href="#p" />
	<use x="120" y="144" xlink:href="#p" />
	<use x="126" y="144" xlink:href="#p" />
	<use x="132" y="144" xlink:href="#p" />
	<use x="138" y="144" xlink:href="#p" />
	<use x="144" y="144" xlink:href="#p" />
	<use x="156" y="144" xlink:href="#p" />
	<use x="24" y="150" xlink:href="#p" />
	<use x="36" y="150" xlink:href="#p" />
	<use x="42" y="150" xlink:href="#p" />
	<use x="48" y="150" xlink:href="#p" />
	<use x="60" y="150" xlink:href="#p" />
	<use x="72" y="150" xlink:href="#p" />
	<use x="90" y="150" xlink:href="#p" />
	<use x="96" y="150" xlink:href="#p" />
	<use x="114" y="150" xlink:href="#p" />
	<use x="120" y="150" xlink:href="#p" />
	<use x="138" y="150" xlink:href="#p" />
	<use x="156" y="150" xlink:href="#p" />
	<use x="168" y="150" xlink:href="#p" />
	<use x="24" y="156" xlink:href="#p" />
	<use x="36" y="156" xlink:href="#p" />
	<use x="42" y="156" xlink:href="#p" />
	<use x="48" y="156" xlink:href="#p" />
	<use x="60" y="156" xlink:href="#p" />
	<use x="72" y="156" xlink:href="#p" />
	<use x="78" y="156" xlink:href="#p" />
	<use x="90" y="156" xlink:href="#p" />
	<use x="96" y="156" xlink:href="#p" />
	<use x="108" y="156" xlink:href="#p" />
	<use x="114" y="156" xlink:href="#p" />
	<use x="126" y="156" xlink:href="#p" />
	<use x="150" y="156" xlink:href="#p" />
	<use x="156" y="156" xlink:href="#p" />
	<use x="168" y="156" xlink:href="#p" />
	<use x="24" y="162" xlink:href="#p" />
	<use x="60" y="162" xlink:href="#p" />
	<use x="72" y="162" xlink:href="#p" />
	<use x="84" y="162" xlink:href="#p" />
	<use x="108" y="162" xlink:href="#p" />
	<use x="114" y="162" xlink:href="#p" />
	<use x="120" y="162" xlink:href="#p" />
	<use x="126" y="162" xlink:href="#p" />
	<use x="156" y="162" xlink:href="#p" />
	<use x="24" y="168" xlink:href="#p" />
	<use x="30" y="168" xlink:href="#p" />
	<use x="36" y="168" xlink:href="#p" />
	<use x="42" y="168" xlink:href="#p" />
	<use x="48" y="168" xlink:href="#p" />
	<use x="54" y="168" xlink:href="#p" />
	<use x="60" y="168" xlink:href="#p" />
	<use x="72" y="168" xlink:href="#p" />
	<use x="78" y="168" xlink:href="#p" />
	<use x="84" y="168" xlink:href="#p" />
	<use x="90" y="168" xlink:href="#p" />
	<use x="96" y="168" xlink:href="#p" />
	<use x="108" y="168" xlink:href="#p" />
	<use x="132" y="168" xlink:href="#p" />
	<use x="138" y="168" xlink:href="#p" />
	<use x="144" y="168" xlink:href="#p" />
	<use x="168" y="168" xlink:href="#p" />
</g>
</svg>